<svg xmlns="http://www.w3.org/2000/svg" viewBox="0 0 64 64" width="96" height="96">
<defs>
<radialGradient id="face" cx="38%" cy="32%" r="75%">
<stop offset="0%" stop-color="#ffe9a8"/>
<stop offset="45%" stop-color="#f3c33f"/>
<stop offset="100%" stop-color="#c8901f"/>
</radialGradient>
<linearGradient id="rim" x1="0" y1="0" x2="0" y2="1">
<stop offset="0%" stop-color="#d9a23a"/>
<stop offset="100%" stop-color="#7a4a12"/>
</linearGradient>
</defs>
<circle cx="32" cy="32" r="30" fill="url(#rim)"/>
<circle cx="32" cy="32" r="28.2" fill="none" stroke="#6e430f" stroke-width="3.6" stroke-dasharray="1.4 1.5"/>
<circle cx="32" cy="32" r="26" fill="url(#face)"/>
<circle cx="32" cy="32" r="26" fill="none" stroke="#a86f17" stroke-width="1.6"/>
<circle cx="32" cy="32" r="23.5" fill="none" stroke="#fff0c0" stroke-width="1" opacity="0.55"/>
<g transform="translate(0.7,0.9)" fill="none" stroke="#fff2cb" stroke-width="3.4" stroke-linecap="round" opacity="0.5">
<path d="M 45.499 15.913 A 21.000 21.000 0 1 0 45.499 48.087"/>
<path d="M 39.713 22.807 A 12.000 12.000 0 1 0 39.713 41.193"/>
</g>
<g transform="translate(0.7,0.9)" fill="#fff2cb" opacity="0.5">
<rect x="30.4" y="13" width="3.2" height="38" rx="1.6"/>
</g>
<g fill="none" stroke="#3d2207" stroke-width="3.4" stroke-linecap="round">
<path d="M 45.499 15.913 A 21.000 21.000 0 1 0 45.499 48.087"/>
<path d="M 39.713 22.807 A 12.000 12.000 0 1 0 39.713 41.193"/>
</g>
<g fill="#3d2207">
<rect x="30.4" y="13" width="3.2" height="38" rx="1.6"/>
</g>
</svg>
